<svg width="48" height="48" viewBox="0 0 48 48" fill="none" xmlns="http://www.w3.org/2000/svg">
<path d="M45.9772 2.0228C43.2801 -0.674268 38.9066 -0.674268 36.2096 2.0228L24 14.2324L11.7904 2.0228C9.09337 -0.674268 4.71987 -0.674268 2.0228 2.0228C-0.674268 4.71987 -0.674268 9.09337 2.0228 11.7904L14.2324 24L2.0228 36.2096C-0.674268 38.9066 -0.674268 43.2801 2.0228 45.9772C4.71987 48.6743 9.09337 48.6743 11.7904 45.9772L24 33.7676L36.2096 45.9772C38.9066 48.6743 43.2801 48.6743 45.9772 45.9772C48.6743 43.2801 48.6743 38.9066 45.9772 36.2096L33.7676 24L45.9772 11.7904C48.6743 9.09337 48.6743 4.71987 45.9772 2.0228Z" fill="#E3E8F1"/>
</svg>
